<svg width="64" height="64" viewBox="0 0 64 64" fill="none" xmlns="http://www.w3.org/2000/svg">
<path d="M29.1652 9H28.8627C17.5711 9.1292 8.03836 17.3491 6.34728 28.4138C6.17017 29.5522 6.08162 30.7028 6.08162 31.8559C6.08039 33.0077 6.16402 34.1583 6.33252 35.2979C7.96457 46.2626 17.3203 54.4752 28.4999 54.7556H28.7803C37.6145 54.6983 45.6272 49.612 49.3746 41.6834C50.0031 40.3707 49.9071 38.8313 49.1237 37.6039C48.3722 36.4168 47.0575 35.6977 45.6431 35.7001C44.0209 35.7062 42.5488 36.6471 41.8748 38.1098C38.5517 45.2583 30.0101 48.3822 22.7969 45.0877C18.7814 43.2545 15.8407 39.6918 14.8224 35.4295C14.5272 34.2631 14.3784 33.0649 14.3796 31.8632C14.403 23.9175 20.8451 17.4539 28.8627 17.3345H29.0398C34.5792 17.46 39.5663 20.69 41.9043 25.6678C42.5648 27.1097 44.0013 28.0494 45.5989 28.0847H45.6505C47.0673 28.0896 48.3858 27.3693 49.1385 26.1809C49.928 24.9596 50.0277 23.4214 49.4041 22.1087C45.7342 14.2703 37.8826 9.18405 29.1652 9Z" fill="white"/>
<path d="M60.2511 28.4066H56.7089C54.7305 28.4931 53.1984 30.1175 53.2889 32.0357C53.3733 33.8319 54.8564 35.2691 56.7089 35.3497H60.2511C62.2295 35.4362 63.9058 33.9528 63.9963 32.0357C64.0856 30.1187 62.5547 28.4943 60.5763 28.4066C60.4687 28.4019 60.3599 28.4019 60.2523 28.4066H60.2511Z" fill="#FC6B4B"/>
<path d="M28.6684 28.4067H3.76713C1.77915 28.3202 0.0946522 29.8036 0.00373117 31.7206C-0.0859612 33.6376 1.45232 35.262 3.4403 35.3497C3.54842 35.3544 3.65777 35.3544 3.7659 35.3497H28.6672C30.6552 35.4362 32.3397 33.9528 32.4306 32.0358C32.5203 30.1187 30.982 28.4944 28.994 28.4067C28.8859 28.4019 28.7766 28.4019 28.6684 28.4067Z" fill="#FC6B4B"/>
</svg>
