<svg width="24" height="24" viewBox="0 0 24 24" fill="none" xmlns="http://www.w3.org/2000/svg">
<path d="M10.9369 3.375H10.8235C6.58916 3.42345 3.01436 6.50592 2.38021 10.6552C2.31379 11.0821 2.28058 11.5136 2.28058 11.9459C2.28012 12.3779 2.31149 12.8093 2.37467 13.2367C2.98669 17.3485 6.49507 20.4282 10.6874 20.5333H10.7926C14.1054 20.5119 17.1102 18.6045 18.5155 15.6313C18.7511 15.139 18.7152 14.5617 18.4214 14.1015C18.1396 13.6563 17.6465 13.3866 17.1162 13.3875C16.5078 13.3898 15.9558 13.7427 15.703 14.2912C14.4569 16.9719 11.2538 18.1433 8.54882 16.9079C7.04298 16.2204 5.94025 14.8844 5.55837 13.2861C5.44768 12.8487 5.39187 12.3994 5.39233 11.9487C5.40109 8.96906 7.81688 6.54523 10.8235 6.50043H10.8899C12.9672 6.54751 14.8373 7.75874 15.7141 9.62541C15.9618 10.1661 16.5004 10.5185 17.0996 10.5318H17.1189C17.6502 10.5336 18.1446 10.2635 18.4269 9.81783C18.723 9.35985 18.7604 8.78303 18.5265 8.29077C17.1503 5.35136 14.206 3.44402 10.9369 3.375Z" fill="white"/>
<path d="M22.5942 10.6525H21.2658C20.524 10.6849 19.9494 11.294 19.9834 12.0134C20.015 12.6869 20.5712 13.2259 21.2658 13.2561H22.5942C23.3361 13.2885 23.9647 12.7323 23.9986 12.0134C24.0321 11.2945 23.458 10.6853 22.7162 10.6525C22.6758 10.6507 22.635 10.6507 22.5946 10.6525H22.5942Z" fill="#FC6B4B"/>
<path d="M10.7507 10.6525H1.41267C0.667181 10.62 0.0354946 11.1763 0.00139919 11.8952C-0.0322355 12.6141 0.54462 13.2232 1.29011 13.2561C1.33066 13.2579 1.37167 13.2579 1.41221 13.2561H10.7502C11.4957 13.2885 12.1274 12.7323 12.1615 12.0134C12.1951 11.2945 11.6183 10.6854 10.8728 10.6525C10.8322 10.6507 10.7912 10.6507 10.7507 10.6525Z" fill="#FC6B4B"/>
</svg>
