<svg width="32" height="32" viewBox="0 0 32 32" fill="none" xmlns="http://www.w3.org/2000/svg">
<path d="M14.5826 4.5H14.4313C8.78554 4.5646 4.01915 8.67456 3.17361 14.2069C3.08506 14.7761 3.04078 15.3514 3.04078 15.9279C3.04016 16.5038 3.08198 17.0791 3.16623 17.6489C3.98225 23.1313 8.6601 27.2376 14.2499 27.3778H14.3901C18.8072 27.3491 22.8135 24.806 24.6873 20.8417C25.0015 20.1854 24.9535 19.4157 24.5618 18.802C24.1861 18.2084 23.5287 17.8488 22.8215 17.8501C22.0104 17.8531 21.2744 18.3236 20.9374 19.0549C19.2758 22.6292 15.005 24.1911 11.3984 22.5438C9.39065 21.6273 7.92033 19.8459 7.41116 17.7148C7.26357 17.1315 7.18916 16.5325 7.18977 15.9316C7.20146 11.9587 10.4225 8.72697 14.4313 8.66724H14.5199C17.2895 8.73001 19.7831 10.345 20.9521 12.8339C21.2823 13.5548 22.0006 14.0247 22.7994 14.0424H22.8252C23.5336 14.0448 24.1929 13.6846 24.5692 13.0904C24.964 12.4798 25.0138 11.7107 24.702 11.0544C22.867 7.13515 18.9413 4.59202 14.5826 4.5Z" fill="white"/>
<path d="M30.1255 14.2033H28.3544C27.3652 14.2466 26.5992 15.0588 26.6444 16.0179C26.6866 16.916 27.4282 17.6346 28.3544 17.6748H30.1255C31.1147 17.7181 31.9529 16.9764 31.9981 16.0179C32.0427 15.0593 31.2773 14.2472 30.2881 14.2033C30.2343 14.2009 30.1799 14.2009 30.1261 14.2033H30.1255Z" fill="#FC6B4B"/>
<path d="M14.3342 14.2033H1.88356C0.889575 14.1601 0.0473261 14.9018 0.00186559 15.8603C-0.0429806 16.8188 0.72616 17.631 1.72015 17.6748C1.77421 17.6772 1.82889 17.6772 1.88295 17.6748H14.3336C15.3276 17.7181 16.1698 16.9764 16.2153 16.0179C16.2601 15.0594 15.491 14.2472 14.497 14.2033C14.443 14.201 14.3883 14.201 14.3342 14.2033Z" fill="#FC6B4B"/>
</svg>
