<svg width="100" height="18" viewBox="0 0 100 18" fill="none" xmlns="http://www.w3.org/2000/svg">
<g clip-path="url(#clip0_554_16806)">
<path d="M2.93813 7.59375H1.56034C0.789468 7.59375 0.164551 8.21452 0.164551 8.98027C0.164551 9.74602 0.789468 10.3667 1.56034 10.3667H2.93813C3.709 10.3667 4.33391 9.74602 4.33391 8.98027C4.33391 8.21452 3.709 7.59375 2.93813 7.59375Z" fill="#FC6B4B"/>
<path d="M64.4258 10.3245C65.0619 13.243 67.7046 14.654 69.937 14.654C71.3304 14.654 72.6661 14.1589 73.6983 13.2597C73.9983 12.9889 74.3848 12.8411 74.7892 12.8411C75.2577 12.8411 75.6975 13.045 75.9975 13.4004C76.5862 14.0981 76.5261 15.1167 75.8584 15.7178C74.2252 17.1896 72.1213 18.0006 69.937 18.0006C68.2147 18.0006 66.6329 17.5546 65.2347 16.6756C64.0082 15.9039 62.9604 14.8078 62.2043 13.5066C61.387 12.0658 60.9801 10.371 61.0294 8.6607C61.0137 8.04765 61.1686 7.25689 61.2274 6.98018C61.579 5.29611 62.3795 3.75992 63.5293 2.58751C64.4126 1.69658 65.4183 1.02866 66.5153 0.601684C67.4826 0.225986 68.5243 0.0351562 69.6117 0.0351562C70.3618 0.0351562 71.1275 0.1258 71.8884 0.304704H71.8896C73.5434 0.751965 75.0952 1.73593 76.2546 3.07413C77.4035 4.39921 78.1223 6.00098 78.2539 7.64213C78.2313 8.5104 77.5787 8.88135 76.8298 8.96723C76.0637 9.0543 75.2035 8.5641 75.1216 7.8258C75.0916 7.61707 75.0425 7.36184 75.0425 7.35826C74.5828 4.82261 72.2725 3.04431 69.6934 3.04431C67.1142 3.04431 64.9623 4.89298 64.5038 7.46322C64.289 8.66543 64.277 9.6423 64.4258 10.3257V10.3245Z" fill="#242424"/>
<path d="M90.5895 17.8766C85.7271 17.8766 81.7729 13.8895 81.7729 8.98875C81.7729 4.08796 85.7271 0.0996094 90.5895 0.0996094C95.4511 0.0996094 99.4053 4.08677 99.4053 8.98755C99.4053 13.8883 95.4511 17.8754 90.5895 17.8754V17.8766ZM90.5895 3.37473C87.5181 3.37473 85.0196 5.8925 85.0196 8.98755C85.0196 12.0826 87.5181 14.6003 90.5895 14.6003C93.6602 14.6003 96.1594 12.0826 96.1594 8.98755C96.1594 5.8925 93.6602 3.37473 90.5895 3.37473Z" fill="#242424"/>
<path d="M86.2308 7.59375H60.1717C59.4008 7.59375 58.7759 8.21452 58.7759 8.98027C58.7759 9.74602 59.4008 10.3667 60.1717 10.3667H86.2308C87.0015 10.3667 87.6263 9.74602 87.6263 8.98027C87.6263 8.21452 87.0015 7.59375 86.2308 7.59375Z" fill="#FC6B4B"/>
<path d="M35.7336 3.03897C34.5731 1.70078 33.0224 0.716806 31.3686 0.269548H31.3674C30.6065 0.0906443 29.8396 0 29.0906 0C28.0034 0 26.9616 0.19083 25.9943 0.566528C24.8961 0.99351 23.8915 1.66142 23.0082 2.55236C21.7133 3.87386 20.86 5.65931 20.5947 7.59503H11.267V1.7783C11.267 0.86589 10.5314 0.122847 9.62644 0.122847C8.72155 0.122847 7.98584 0.850387 7.98584 1.7783V7.59503H7.0209C6.308 7.59503 5.67432 8.16158 5.67432 8.98215C5.67432 9.80273 6.3176 10.3692 7.0545 10.3692H7.98584V11.6049C7.98584 13.2591 8.62313 14.8132 9.78125 15.9809C10.9382 17.1473 12.4792 17.7902 14.1198 17.7902H15.3392C16.2597 17.7902 16.9798 17.0626 16.9798 16.1347C16.9798 15.2068 16.2441 14.4793 15.3392 14.4793H14.1198C12.52 14.4793 11.267 13.2162 11.267 11.6049V10.3692H20.6152C20.7843 11.4689 21.1444 12.5256 21.6821 13.4726C22.4382 14.7738 23.4859 15.8699 24.7125 16.6416C26.1106 17.5206 27.6925 17.9667 29.4147 17.9667C31.599 17.9667 33.7029 17.1557 35.3363 15.6839C36.0036 15.0827 36.0649 14.0642 35.4755 13.3665C35.1755 13.0111 34.735 12.8071 34.267 12.8071C33.8637 12.8071 33.4761 12.955 33.1761 13.2257C32.1439 14.1251 30.8081 14.62 29.4147 14.62C27.2172 14.62 24.6933 13.3045 23.9384 10.3681C23.9384 10.3681 35.91 10.3681 35.9724 10.3681C36.6445 10.3681 37.1822 10.021 37.4006 9.67868C37.8051 9.04178 37.8063 8.3166 37.7751 7.7823C37.6394 6.06363 36.9337 4.42368 35.7336 3.03778V3.03897ZM23.9816 7.39944V7.39467C24.4845 4.83278 26.6183 3.04255 29.1723 3.04255C31.7262 3.04255 34.0077 4.87452 34.537 7.39706C34.537 7.39944 34.555 7.47816 34.5706 7.59383H23.9576C23.9696 7.48889 23.9804 7.41734 23.9828 7.39944H23.9816Z" fill="#242424"/>
<path d="M57.1773 11.2785C56.882 10.8062 56.3756 10.5211 55.8211 10.5152H55.8055C55.1815 10.5152 54.6198 10.873 54.3366 11.4503C53.3812 13.4003 51.4633 14.612 49.3306 14.612C46.7899 14.612 44.572 12.8708 43.9395 10.3768C43.8255 9.92715 43.7679 9.4644 43.7679 9.00045C43.7679 8.5365 43.8267 8.07375 43.9419 7.62405C44.5792 5.13016 46.8007 3.38645 49.3439 3.38645C51.4669 3.38645 53.3788 4.59226 54.333 6.53276C54.615 7.10645 55.1766 7.46306 55.7972 7.46306H55.8175C56.372 7.45591 56.8796 7.16847 57.1737 6.69497C57.4762 6.20836 57.5062 5.61082 57.2554 5.09438C56.5304 3.60591 55.4287 2.35716 54.0701 1.48411C52.6743 0.586018 51.0409 0.111328 49.3427 0.111328C47.2268 0.111328 45.1769 0.885382 43.5723 2.28918C41.9833 3.67866 40.9343 5.58815 40.6199 7.66582C40.5527 8.10592 40.519 8.55555 40.519 9.00285C40.519 9.45008 40.5514 9.8997 40.6175 10.3398C40.9283 12.4163 41.9736 14.3246 43.5602 15.7129C45.1625 17.1155 47.2099 17.8872 49.3247 17.8883H49.3271C52.7199 17.8883 55.7599 15.9681 57.2589 12.8791C57.5098 12.3626 57.4786 11.7639 57.1749 11.2785H57.1773Z" fill="#242424"/>
</g>
<defs>
<clipPath id="clip0_554_16806">
<rect width="100" height="18" fill="white"/>
</clipPath>
</defs>
</svg>
